<?xml version="1.0" encoding="utf-8"?>
<!-- Generator: Adobe Illustrator 27.1.1, SVG Export Plug-In . SVG Version: 6.00 Build 0)  -->
<svg version="1.1" id="Capa_1" xmlns="http://www.w3.org/2000/svg" xmlns:xlink="http://www.w3.org/1999/xlink" x="0px"
  y="0px" viewBox="0 0 80 80" style="enable-background:new 0 0 80 80;" width="80" height="80" xml:space="preserve">
  <style type="text/css" width="80" height="80">
    .st0 {
      fill: #0B50DA;
    }
  </style>
  <g>
    <g>
      <path d="M64.9,69.7l-3-9c-1-3.1-3.7-5.4-7-6l-8.6-1.6v-0.7c1.5-0.9,2.8-2,3.8-3.4h2.6c2.1,0,3.9-1.7,3.9-3.9V29.7
			c0-9.2-7.5-16.8-16.8-16.8s-16.8,7.5-16.8,16.8v9c0,2.5,1.8,4.6,4.1,5.1c0.7,3.7,3,6.8,6.2,8.7v0.7l-8.6,1.6c-3.2,0.6-5.9,2.9-7,6
			l-0.5,1.5L13,57.9c-0.5-0.5-0.5-1.3,0-1.8l5.1-5.1l-9.6-9.6l-5.8,5.8c-1.7,1.7-2.6,4-2.6,6.4s0.9,4.7,2.6,6.4l17.4,17.4
			c1.7,1.7,4,2.6,6.4,2.6c2.4,0,4.7-0.9,6.3-2.6l6.3-5.8l-2-2H64.9z M54.1,45.2c0,0.7-0.6,1.3-1.3,1.3h-1.1c0.4-0.9,0.7-1.8,0.8-2.7
			c0.6-0.1,1.1-0.3,1.5-0.6V45.2z M52.8,40.9v-4.4c0.8,0.4,1.3,1.3,1.3,2.2C54.1,39.7,53.6,40.5,52.8,40.9z M27,40.9
			c-0.8-0.4-1.3-1.3-1.3-2.2c0-1,0.5-1.8,1.3-2.2V40.9z M27,32.3v1.5c-0.5,0.1-0.9,0.3-1.3,0.5v-4.6c0-7.8,6.4-14.2,14.2-14.2
			s14.2,6.4,14.2,14.2v4.6c-0.4-0.2-0.8-0.4-1.3-0.5v-1.5h-1.3c-3.8,0-7.4-1.5-10.1-4.2l-1.5-1.5l-1.5,1.5
			c-2.7,2.7-6.3,4.2-10.1,4.2H27z M29.6,41.3v-6.5c3.9-0.3,7.5-1.9,10.3-4.6c2.8,2.7,6.4,4.3,10.3,4.6v6.5c0,1.9-0.5,3.6-1.4,5.2
			h-8.9V49h6.8c-1.8,1.6-4.2,2.6-6.8,2.6C34.2,51.6,29.6,47,29.6,41.3z M43.8,53.6L43.8,53.6l-3.9,3.9L36,53.7v-0.1
			c1.2,0.4,2.5,0.6,3.9,0.6C41.3,54.2,42.6,54,43.8,53.6z M20.3,61.5c0.7-2.2,2.6-3.9,5-4.3l9-1.6l5.6,5.6l5.6-5.6l9,1.6
			c2.3,0.4,4.2,2.1,5,4.3l1.9,5.6H34.7l-5-5L24,67.1c-0.5,0.5-1.3,0.5-1.8,0l-2.8-2.8L20.3,61.5z M8.5,45l5.9,5.9L13,52.3l-5.9-5.9
			L8.5,45z M31.1,75.5c-1.2,1.2-2.8,1.9-4.6,1.9c-1.7,0-3.3-0.7-4.6-1.9L4.6,58.1c-1.2-1.2-1.9-2.8-1.9-4.6c0-1.7,0.7-3.3,1.9-4.6
			l0.7-0.7l5.9,5.9l0,0c-1.5,1.5-1.5,4,0,5.5l9.3,9.3c0.7,0.7,1.7,1.1,2.7,1.1c1,0,2-0.4,2.7-1.1l0.1-0.1l5.9,5.9L31.1,75.5z
			 M33.8,73.1l-5.9-5.9l1.7-1.5l5.9,5.9L33.8,73.1z" />
    </g>
  </g>
  <g>
    <g>
      <path d="M76,0H58c-2.1,0-3.9,1.7-3.9,3.9v10.3c0,2.1,1.7,3.9,3.9,3.9h3.4l-1.3,7.8l12.5-7.8H76c2.1,0,3.9-1.7,3.9-3.9V3.9
			C79.9,1.7,78.2,0,76,0z M77.3,14.2c0,0.7-0.6,1.3-1.3,1.3h-4.2l-8.2,5.1l0.9-5.1H58c-0.7,0-1.3-0.6-1.3-1.3V3.9
			c0-0.7,0.6-1.3,1.3-1.3H76c0.7,0,1.3,0.6,1.3,1.3V14.2z" />
    </g>
  </g>
  <g>
    <g>
      <rect x="59.3" y="5.2" width="15.5" height="2.6" />
    </g>
  </g>
  <g>
    <g>
      <rect x="59.3" y="10.3" width="10.3" height="2.6" />
    </g>
  </g>
  <g>
    <g>
      <rect x="72.2" y="10.3" width="2.6" height="2.6" />
    </g>
  </g>
  <g>
    <g>
      <path class="st0" d="M39.9,3.9C23,3.9,8.5,15.5,4.8,31.8l-2.4-4.1l-2.2,1.3l4.5,7.6l7.6-4.5l-1.3-2.2L7.4,32
			C11,17.1,24.4,6.5,39.9,6.5c3.4,0,6.7,0.5,9.9,1.5l0.8-2.5C47.2,4.4,43.6,3.9,39.9,3.9z" />
    </g>
  </g>
  <g>
    <g>
      <path class="st0" d="M79.3,28.6L71.7,24l-4.5,7.6l2.2,1.3l2.3-3.8c1.2,3.5,1.8,7.1,1.8,10.8c0,7.7-2.7,15.2-7.5,21.1l2,1.6
			C73.2,56.3,76,48.3,76,40c0-3.9-0.6-7.8-1.9-11.5l3.8,2.3L79.3,28.6z" />
    </g>
  </g>
</svg>
