<svg xmlns="http://www.w3.org/2000/svg" version="1.1" xmlns:xlink="http://www.w3.org/1999/xlink" width="100"
  height="100" x="0" y="0" viewBox="0 0 62 62" style="enable-background:new 0 0 512 512" xml:space="preserve" class="">
  <g>
    <path fill="#e3e3e3"
      d="M61 20v40c0 .55-.45 1-1 1H34c-.55 0-1-.45-1-1V43h4v3c0 .55.45 1 1 1h18c.55 0 1-.45 1-1v-2c0-.55-.45-1-1-1h-5v-4h5c.55 0 1-.45 1-1v-2c0-.55-.45-1-1-1h-5v-4h5c.55 0 1-.45 1-1v-2c0-.55-.45-1-1-1h-5v-8h9c.55 0 1 .45 1 1z"
      opacity="1" data-original="#ccd1d9"></path>
    <path fill="#0B50DA" d="M57 44v2c0 .55-.45 1-1 1H38c-.55 0-1-.45-1-1v-3h19c.55 0 1 .45 1 1z" opacity="1"
      data-original="#ff826e" class=""></path>
    <path fill="#ffffff"
      d="M57 36v2c0 .55-.45 1-1 1h-5v-4h5c.55 0 1 .45 1 1zM57 28v2c0 .55-.45 1-1 1h-5v-4h5c.55 0 1 .45 1 1z" opacity="1"
      data-original="#b4dd7f" class=""></path>
    <path fill="#e3e3e3" d="M28 61H6a1 1 0 0 1-1-1V38a1 1 0 0 1 1-1h22a1 1 0 0 1 1 1v22a1 1 0 0 1-1 1z" opacity="1"
      data-original="#d3a06c" class=""></path>
    <path fill="#ffffff" d="M50 1H24c-.55 0-1 .45-1 1v35h5c.55 0 1 .45 1 1v5h22V2c0-.55-.45-1-1-1z" opacity="1"
      data-original="#e6e9ed" class=""></path>
    <path fill="#0B50DA" d="M13 37h8v5c0 .55-.45 1-1 1h-6c-.55 0-1-.45-1-1z" opacity="1" data-original="#b27946"
      class=""></path>
    <path fill="#0B50DA"
      d="M51 31v2h-5v-1.34c0-.89-1.08-1.34-1.71-.71l-.95.95-4.24-4.24.95-.95c.63-.63.18-1.71-.71-1.71H38v-6h1.34c.89 0 1.34-1.08.71-1.71l-.95-.95 4.24-4.24.95.95c.63.63 1.71.18 1.71-.71V11h5v5.34A6.005 6.005 0 0 0 43 22a6.005 6.005 0 0 0 8 5.66z"
      opacity="1" data-original="#fcd770" class=""></path>
    <path d="M26 4h2v2h-2zM30 4h10v2H30zM18 56h2v2h-2zM22 56h2v2h-2zM18 52h8v2h-8z" fill="#000000" opacity="1"
      data-original="#000000" class=""></path>
    <path
      d="M60 18h-8V2c0-1.103-.897-2-2-2H24c-1.103 0-2 .897-2 2v20H10C4.486 22 0 26.486 0 32a9.978 9.978 0 0 0 4 7.977V60c0 1.103.897 2 2 2h22c1.103 0 2-.897 2-2V44h2v16c0 1.103.897 2 2 2h26c1.103 0 2-.897 2-2V20c0-1.103-.897-2-2-2zM38 44h18v2H38zm14-8h4v2h-4zm-6.234-6.191a1.994 1.994 0 0 0-2.18.433l-.243.243-2.828-2.829.242-.242a1.995 1.995 0 0 0 .435-2.179A1.996 1.996 0 0 0 39.343 24H39v-4h.343c.813 0 1.538-.485 1.849-1.235s.14-1.605-.435-2.179l-.242-.243 2.828-2.829.243.243c.574.575 1.43.744 2.18.434S47 13.155 47 12.343V12h3v3.084A7.088 7.088 0 0 0 49 15c-3.859 0-7 3.14-7 7s3.141 7 7 7c.337 0 .67-.037 1-.084V32h-3v-.343c0-.812-.484-1.537-1.234-1.848zM50 26.889c-.328.067-.66.111-1 .111-2.757 0-5-2.243-5-5s2.243-5 5-5c.34 0 .672.044 1 .111zM52 28h4v2h-4zM4.102 37.4A7.993 7.993 0 0 1 2 32c0-4.411 3.589-8 8-8h12v12H6c-.892 0-1.641.591-1.898 1.4zM16 40v2h-2v-4h6v4h-2v-2zM6 60V38h6v4c0 1.103.897 2 2 2h6c1.103 0 2-.897 2-2v-4h6l.002 22zm22-24h-4V24h6.586l-3.293 3.293 1.414 1.414L34.414 23l-5.707-5.707-1.414 1.414L30.586 22H24V2h26v8h-5v2.343l-1.657-1.656-5.656 5.657L39.343 18H37v8h2.343l-1.656 1.657 5.656 5.657L45 31.657V34h5v8H30v-4c0-1.103-.897-2-2-2zm32 24H34V44h2v2c0 1.103.897 2 2 2h18c1.103 0 2-.897 2-2v-2c0-1.103-.897-2-2-2h-4v-2h4c1.103 0 2-.897 2-2v-2c0-1.103-.897-2-2-2h-4v-2h4c1.103 0 2-.897 2-2v-2c0-1.103-.897-2-2-2h-4v-6h8z"
      fill="#000000" opacity="1" data-original="#000000" class=""></path>
    <path d="M40 52h2v2h-2zM46 52h2v2h-2zM52 52h2v2h-2zM30 30h2v2h-2zM34 30h4v2h-4zM30 34h8v2h-8zM26 8h12v2H26z"
      fill="#000000" opacity="1" data-original="#000000" class=""></path>
  </g>
</svg>
