<svg xmlns="http://www.w3.org/2000/svg" version="1.1" xmlns:xlink="http://www.w3.org/1999/xlink" width="100"
  height="100" x="0" y="0" viewBox="0 0 510 510" style="enable-background:new 0 0 512 512" xml:space="preserve"
  fill-rule="evenodd" class="">
  <g>
    <path fill="#ffffff"
      d="M165.9 44.889a8.567 8.567 0 0 0-8.567-8.567H23.567A8.568 8.568 0 0 0 15 44.889v132.274c0 5.54 4.519 10.059 10.059 10.059H155.84c5.54 0 10.06-4.519 10.06-10.059V44.889z"
      opacity="1" data-original="#ecba78" class=""></path>
    <path fill="#0B50DA"
      d="M138.706 187.222c5.54 0 10.06-4.519 10.06-10.059V44.889a8.567 8.567 0 0 0-8.567-8.567h17.134a8.568 8.568 0 0 1 8.567 8.567v132.274c0 5.54-4.52 10.059-10.06 10.059z"
      opacity="1" data-original="#e3a76f" class=""></path>
    <path fill="#0B50DA"
      d="M115.713 36.322H65.186v53a8.567 8.567 0 0 0 8.567 8.567h33.393a8.568 8.568 0 0 0 8.567-8.567v-53z" opacity="1"
      data-original="#f2d1a5" class=""></path>
    <path fill="#d8d8d8"
      d="M331.756 21.192a5 5 0 0 1 4.966 4.421l13.771 118.103h-58.265l13.771-118.103a4.999 4.999 0 0 1 4.966-4.421z"
      opacity="1" data-original="#a79ba7" class=""></path>
    <path fill="#ffffff"
      d="M321.756 21.192h10a5 5 0 0 1 4.966 4.421l13.771 118.103h-10L326.722 25.613a5 5 0 0 0-4.966-4.421z" opacity="1"
      data-original="#837683" class=""></path>
    <path fill="#ffffff"
      d="M280.111 71.89a3.09 3.09 0 0 1 3.09-3.091h76.32a3.091 3.091 0 0 1 3.091 3.091v18.131L428.8 71.416V35.201a3.09 3.09 0 0 1 2.254-2.975l60.009-16.867a3.088 3.088 0 0 1 3.927 2.975v168.584a3.091 3.091 0 0 1-3.091 3.091H283.201a3.092 3.092 0 0 1-3.09-3.091V71.89z"
      opacity="1" data-original="#eceff1" class=""></path>
    <path fill="#d1d1d6"
      d="M349.521 190.009h10a3.09 3.09 0 0 0 3.091-3.091V71.89a3.091 3.091 0 0 0-3.091-3.091h-10a3.091 3.091 0 0 1 3.091 3.091v115.028a3.091 3.091 0 0 1-3.091 3.091z"
      opacity="1" data-original="#d1d1d6" class=""></path>
    <path fill="#d1d1d6" d="M362.612 90.021 428.8 71.416v118.593h-66.188z" opacity="1" data-original="#d1d1d6" class="">
    </path>
    <path fill="#b1b1b5" d="M366.151 190.009h-3.539V90.021L428.8 71.416v7.456l-62.649 17.609z" opacity="1"
      data-original="#b1b1b5" class=""></path>
    <path fill="#ffffff"
      d="M428.8 35.201a3.09 3.09 0 0 1 2.254-2.975l60.008-16.867a3.088 3.088 0 0 1 3.927 2.975v168.584c0 .82-.326 1.606-.905 2.186a3.094 3.094 0 0 1-2.186.905H428.8z"
      opacity="1" data-original="#eceff1" class=""></path>
    <path fill="#d1d1d6"
      d="m484.746 17.134 6.316-1.775a3.088 3.088 0 0 1 3.927 2.975v168.584c0 .82-.326 1.606-.905 2.186a3.094 3.094 0 0 1-2.186.905h-10c.82 0 1.606-.326 2.186-.905.579-.58.905-1.366.905-2.186V18.334a3.07 3.07 0 0 0-.243-1.2z"
      opacity="1" data-original="#d1d1d6" class=""></path>
    <path fill="#d8d8d8" d="M303.671 124.855a5 5 0 0 1 5-5h25.379a5 5 0 0 1 5 5v65.155h-35.379z" opacity="1"
      data-original="#a79ba7" class=""></path>
    <path fill="#ffffff"
      d="M95.31 494.724c44.224 0 80.3-36.067 80.3-80.291 0-44.223-36.076-80.3-80.3-80.3-44.223 0-80.3 36.077-80.3 80.3 0 44.224 36.077 80.291 80.3 80.291z"
      opacity="1" data-original="#837683" class=""></path>
    <path fill="#ffffff"
      d="M161.327 414.433c0 16.426-4.931 31.695-13.391 44.423a80.678 80.678 0 0 1-11.295 13.505c-12.822 12.31-29.723 20.4-48.472 22.05 2.352.208 4.732.313 7.141.313a80.63 80.63 0 0 0 12.936-1.034c38.201-6.183 67.364-39.32 67.364-79.257 0-44.346-35.953-80.3-80.3-80.3-2.409 0-4.789.105-7.141.313 41.008 3.614 73.158 38.04 73.158 79.987z"
      opacity="1" data-original="#685e68" class=""></path>
    <path fill="#0B50DA"
      d="M95.31 422.172c-28.926 0-52.74 21.917-55.756 50.047 14.444 13.931 34.095 22.505 55.756 22.505a80.63 80.63 0 0 0 11.495-.816c17.071-2.447 32.416-10.271 44.251-21.689-3.006-28.139-26.82-50.047-55.746-50.047z"
      opacity="1" data-original="#8ac9fe" class=""></path>
    <path fill="#0B50DA"
      d="M88.178 422.627c33.374 4.24 46.822 29.495 49.914 59.758a79.765 79.765 0 0 0 12.964-10.166c-3.006-28.139-26.82-50.047-55.746-50.047-2.418 0-4.799.152-7.132.455z"
      opacity="1" data-original="#60b7ff" class=""></path>
    <path fill="#d2d2d2"
      d="M95.31 417.933c15.62 0 28.357-12.737 28.357-28.347 0-15.62-12.737-28.348-28.357-28.348-15.61 0-28.347 12.728-28.347 28.348 0 15.61 12.737 28.347 28.347 28.347z"
      opacity="1" data-original="#f6dccd" class=""></path>
    <path fill="#ffffff"
      d="M116.526 389.586c0 14.453-10.812 26.374-24.782 28.129 1.167.142 2.362.218 3.566.218 15.658 0 28.348-12.69 28.348-28.347 0-15.658-12.69-28.348-28.348-28.348-1.204 0-2.399.076-3.566.218 13.97 1.755 24.782 13.676 24.782 28.13z"
      opacity="1" data-original="#f1cbbc" class=""></path>
    <path fill="#ffffff"
      d="M421.322 370.487h45.645c4.566 0 8.461 2.434 10.112 6.321l17.187 40.47a8.735 8.735 0 0 1 .734 3.58v50.069c0 3.579-2.92 6.499-6.499 6.499H302.197c-4.772 0-8.665-3.892-8.665-8.665V437.12h125.552v-64.395a2.242 2.242 0 0 1 2.238-2.238z"
      opacity="1" data-original="#ffe177" class=""></path>
    <path fill="#0B50DA"
      d="M421.322 370.487h6.583a2.242 2.242 0 0 0-2.238 2.238v104.701h-6.584V372.725a2.243 2.243 0 0 1 2.239-2.238z"
      opacity="1" data-original="#ffc338" class=""></path>
    <path fill="#ffffff"
      d="m478.09 413.263-11.7-27.548a3.079 3.079 0 0 0-2.885-1.908h-27.968a3.14 3.14 0 0 0-3.133 3.134v27.547a3.14 3.14 0 0 0 3.133 3.134h39.668a3.054 3.054 0 0 0 2.614-1.404 3.055 3.055 0 0 0 .271-2.955z"
      opacity="1" data-original="#eceff1" class=""></path>
    <path fill="#d1d1d6"
      d="M440.015 383.807h-4.478a3.14 3.14 0 0 0-3.133 3.134v27.547a3.14 3.14 0 0 0 3.133 3.134h4.478a3.14 3.14 0 0 1-3.134-3.134v-27.547a3.14 3.14 0 0 1 3.134-3.134z"
      opacity="1" data-original="#d1d1d6" class=""></path>
    <path fill="#ffffff"
      d="M457.042 460.096c9.572 0 17.33 7.759 17.33 17.33 0 9.572-7.758 17.331-17.33 17.331-9.571 0-17.331-7.759-17.331-17.331 0-9.571 7.76-17.33 17.331-17.33z"
      opacity="1" data-original="#685e68" class=""></path>
    <path fill="#ffffff"
      d="M280.1 351.344c0-4.766 3.893-8.665 8.665-8.665h121.653c4.773 0 8.665 3.893 8.665 8.665v126.082H288.765c-4.772 0-8.665-3.892-8.665-8.665z"
      opacity="1" data-original="#837683" class=""></path>
    <g fill="#685e68">
      <path
        d="M280.1 351.344c0-4.766 3.893-8.665 8.665-8.665h11.612c-4.772 0-8.665 3.899-8.665 8.665v117.417c0 4.772 3.893 8.665 8.665 8.665h-11.612c-4.772 0-8.665-3.892-8.665-8.665zM332.384 460.096c9.572 0 17.33 7.759 17.33 17.33 0 9.572-7.758 17.331-17.33 17.331-9.571 0-17.331-7.759-17.331-17.331 0-9.571 7.76-17.33 17.331-17.33z"
        fill="#ffffff" opacity="1" data-original="#685e68" class=""></path>
    </g>
    <path fill="#ffffff"
      d="M168.751 274.692a2.244 2.244 0 0 1 2.244-2.244h20.143a2.243 2.243 0 0 1 2.244 2.244v45.012h-24.631z"
      opacity="1" data-original="#ffe177" class=""></path>
    <path fill="#0B50DA"
      d="M181.138 272.448h10a2.243 2.243 0 0 1 2.244 2.244v45.012h-10v-45.012a2.243 2.243 0 0 0-2.244-2.244z"
      opacity="1" data-original="#ffd064" class=""></path>
    <path fill="#0B50DA"
      d="M284.859 224.08a2.244 2.244 0 0 0-2.244-2.244h-20.144a2.244 2.244 0 0 0-2.244 2.244v95.624h24.632z" opacity="1"
      data-original="#8ac9fe" class=""></path>
    <path fill="##0B50DA"
      d="M274.859 319.704V224.08a2.244 2.244 0 0 0-2.244-2.244h10a2.244 2.244 0 0 1 2.244 2.244v95.624z" opacity="1"
      data-original="#60b7ff" class=""></path>
    <path fill="#0B50DA"
      d="M239.121 249.933a2.244 2.244 0 0 0-2.244-2.244h-20.144a2.244 2.244 0 0 0-2.244 2.244v69.771h24.632z"
      opacity="1" data-original="#6cf5c2" class=""></path>
    <path fill="#0B50DA"
      d="M229.121 319.704v-69.771a2.244 2.244 0 0 0-2.244-2.244h10a2.244 2.244 0 0 1 2.244 2.244v69.771z" opacity="1"
      data-original="#00e499" class=""></path>
    <path
      d="M15 28.563h150.921a8 8 0 0 1 8 8v140.861c0 9.948-8.115 18.059-18.062 18.059H25.06c-9.947 0-18.06-8.111-18.06-18.059V36.563a8 8 0 0 1 8-8zm42.195 16H23v132.861c0 1.135.926 2.06 2.06 2.06h130.799a2.065 2.065 0 0 0 2.062-2.06V44.563h-34.194v53.575a8 8 0 0 1-8 8H65.195a8 8 0 0 1-8-8zm50.532 0H73.195v45.575h34.532zm195.955 154.192-23.561-.001a8 8 0 0 1-8-8V69.544a8 8 0 0 1 8-8h13.731l4.726-40.533a8 8 0 0 1 7.946-7.073h29.693a8 8 0 0 1 7.946 7.073l4.726 40.533h13.733a8 8 0 0 1 8 8v10.663L420.81 66.1V33.604a8 8 0 0 1 5.836-7.701l66.189-18.604A8 8 0 0 1 503 15v175.754a8 8 0 0 1-8 8H362.622l-23.561.001zm50.94-121.211h-66.501v105.21l7.561.001V120.6a8 8 0 0 1 8-8h35.379a8 8 0 0 1 7.999 8v62.155l7.562-.001zm-21.841-16-3.685-31.607h-15.45l-3.686 31.607zM420.81 82.72l-50.188 14.107v85.927h50.188zm16 100.034H487V25.559l-50.19 14.107zm-125.128.001h19.379V128.6h-19.379zm-39.561 286.252v-126.07a8 8 0 0 1 8-8h130.306c9.177 0 16.664 7.486 16.664 16.664v11.141h39.879c7.946 0 14.601 4.43 17.474 11.194l17.186 40.467c.952 2.243 1.37 4.301 1.37 6.705v50.065c0 7.985-6.513 14.498-14.498 14.498h-7.416C477.737 495.74 468.24 503 457.046 503s-20.691-7.26-24.039-17.329H356.44C353.091 495.74 343.593 503 332.4 503c-11.194 0-20.691-7.26-24.04-17.329h-19.574c-9.178 0-16.665-7.486-16.665-16.664zm16.665-118.07h-.665v118.07c0 .366.299.664.665.664h19.574c3.349-10.068 12.846-17.329 24.04-17.329 11.193 0 20.691 7.261 24.04 17.329h54.651v-118.07a.665.665 0 0 0-.664-.664zm192.3 118.734H487v-17.692h-7.825c-4.415 0-8-3.584-8-8 0-4.415 3.585-8 8-8H487v-14.871c0-.163-.033-.301-.097-.453l-17.185-40.464c-.43-1.012-1.558-1.449-2.748-1.449h-39.879v90.929h5.916c3.348-10.068 12.845-17.329 24.039-17.329s20.691 7.261 24.04 17.329zM332.4 468.342a9.329 9.329 0 0 0-9.329 9.329A9.328 9.328 0 0 0 332.4 487a9.33 9.33 0 0 0 0-18.658zm141.716-46.613h-35.88a8 8 0 0 1-8-8v-25.523a8 8 0 0 1 8-8h25.04a8 8 0 0 1 7.364 4.872l10.84 25.524a8.002 8.002 0 0 1-7.364 11.127zm-12.089-16-4.044-9.524h-11.747v9.524zm-4.981 62.613a9.33 9.33 0 1 0 0 18.659 9.33 9.33 0 0 0 0-18.659zM298.9 327.954H154.73c-4.415 0-8-3.584-8-8a8.003 8.003 0 0 1 8-7.999h6.031v-39.256a8 8 0 0 1 8-8h24.632a8 8 0 0 1 8 8v39.256h5.107V247.94c0-4.419 3.581-8 7.999-8h24.632a8 8 0 0 1 8 8v64.015h5.107v-89.868a8 8 0 0 1 8-8h24.631a8 8 0 0 1 8 8v89.868h6.031c4.415 0 8 3.584 8 7.999 0 4.416-3.585 8-8 8zm-113.507-15.999v-31.256h-8.632v31.256zm45.738 0V255.94h-8.632v56.015zm45.738 0v-81.868h-8.631v81.868zM95.321 326.359c48.783 0 88.32 39.537 88.32 88.32 0 48.784-39.537 88.321-88.32 88.321C46.537 503 7 463.463 7 414.679c0-48.783 39.537-88.32 88.321-88.32zm59.772 129.049c7.918-11.599 12.548-25.622 12.548-40.729 0-39.945-32.375-72.32-72.32-72.32-39.946 0-72.321 32.375-72.321 72.32 0 15.107 4.63 29.13 12.548 40.729 6.168-15.939 18.523-28.798 34.116-35.626-6.608-6.593-10.709-15.696-10.709-25.714 0-20.008 16.358-36.366 36.366-36.366 20.007 0 36.365 16.358 36.365 36.366 0 10.018-4.101 19.121-10.709 25.714 15.593 6.828 27.948 19.687 34.116 35.626zM48.101 469.462C60.77 480.391 77.273 487 95.321 487c18.047 0 34.55-6.609 47.219-17.538-4.235-22.226-23.772-39.029-47.219-39.029-23.448 0-42.985 16.803-47.22 39.029zm47.22-55.029c11.204 0 20.365-9.161 20.365-20.365 0-11.205-9.161-20.366-20.365-20.366-11.205 0-20.366 9.161-20.366 20.366 0 11.204 9.161 20.365 20.366 20.365zM235.304 94.878l-.499-.718c-2.518-3.626-1.619-8.615 2.007-11.134s8.616-1.62 11.134 2.006l9.226 13.282a7.999 7.999 0 0 1 0 9.127l-9.226 13.282c-2.518 3.626-7.508 4.525-11.134 2.006s-4.525-7.508-2.007-11.134l.499-.717h-37.912c-4.415 0-8-3.585-8-8 0-4.416 3.585-8 8-8zm-18.216 311.801H255c4.415 0 8 3.585 8 8 0 4.416-3.585 8-8 8h-37.912l.498.718a8.004 8.004 0 0 1-2.006 11.134 8.005 8.005 0 0 1-11.135-2.006l-9.225-13.282a7.999 7.999 0 0 1 0-9.127l9.225-13.282a8.005 8.005 0 0 1 11.135-2.006 8.004 8.004 0 0 1 2.006 11.134zM379.56 278.153v-37.912c0-4.415 3.585-8 8-8 4.416 0 8 3.585 8 8v37.912l.718-.498a8.003 8.003 0 0 1 11.134 2.007 8.004 8.004 0 0 1-2.006 11.134l-13.282 9.225a7.999 7.999 0 0 1-9.127 0l-13.282-9.225a8.004 8.004 0 0 1-2.006-11.134 8.003 8.003 0 0 1 11.134-2.007zm-281.1-22.614v37.912c0 4.415-3.584 8-8 8-4.415 0-8-3.585-8-8v-37.912l-.717.498a8.005 8.005 0 0 1-11.135-2.006 8.006 8.006 0 0 1 2.007-11.135l13.281-9.225a8 8 0 0 1 9.128 0l13.282 9.225a8.005 8.005 0 0 1 2.006 11.135 8.004 8.004 0 0 1-11.134 2.006zm129.271-55.831a7.963 7.963 0 0 1-1.315-4.394c0-4.415 3.585-8 8-8h16.924a8 8 0 0 1 6.928 12.001l-8.462 14.656a8.004 8.004 0 0 1-10.928 2.927 7.957 7.957 0 0 1-3.147-3.334l-78.275 45.192c-3.824 2.208-8.72.896-10.928-2.928s-.896-8.721 2.928-10.928z"
      fill="#000000" opacity="1" data-original="#000000" class=""></path>
  </g>
</svg>