<?xml version="1.0" encoding="utf-8"?>
<!-- Generator: Adobe Illustrator 27.1.1, SVG Export Plug-In . SVG Version: 6.00 Build 0)  -->
<svg version="1.1" id="icons" xmlns="http://www.w3.org/2000/svg" xmlns:xlink="http://www.w3.org/1999/xlink" x="0px"
  y="0px" width="80" height="80" viewBox="0 0 80 80" style="enable-background:new 0 0 80 80;" xml:space="preserve">
  <style type="text/css">
    .st0 {
      fill: #0B50DA;
    }
  </style>
  <g>
    <g>
      <g>
        <g>
          <path d="M21,33.6L21,33.6c-0.6,0-1.1-0.5-1.1-1.1c0.3-8.3-3.1-12.4-3.2-12.4c-0.4-0.4-0.3-1.2,0.1-1.5c0.4-0.4,1.1-0.4,1.5,0.1
					c0.2,0.2,4.1,4.7,3.7,14C22.1,33.2,21.6,33.6,21,33.6z" />
        </g>
        <g>
          <path d="M18,29.4C17.9,29.4,17.9,29.4,18,29.4c-1.4-0.1-3.4-0.9-4.8-3.9c-0.4-0.8-0.8-1.8-0.9-2.9l-2-9.7
					c-0.1-0.4,0-0.8,0.3-1.1c0.3-0.3,0.7-0.4,1.1-0.4c0.8,0.1,3.1,0.4,5.6,1.2c2.6,0.8,4.8,2.7,6.1,5.1c1.2,2.4,1.4,5.1,0.6,7.6
					c-0.2,0.6-0.8,0.9-1.4,0.7c-0.6-0.2-0.9-0.8-0.7-1.4c0.7-2,0.5-4.1-0.5-5.9c-1-1.9-2.8-3.4-4.8-4c-1.4-0.4-2.9-0.7-3.9-0.9
					l1.7,8.4c0.2,0.9,0.4,1.7,0.8,2.3c0.6,1.1,1.5,2.5,3,2.7c0.6,0.1,1,0.6,1,1.2C19,28.9,18.5,29.4,18,29.4z" />
        </g>
      </g>
      <g>
        <g>
          <path d="M25.8,28c-0.5,0-1-0.4-1.1-0.9c-0.1-0.6,0.3-1.2,0.9-1.2c1.4-0.2,2.3-1.7,2.8-2.9c0.3-0.7,0.5-1.5,0.6-2.4l1-8.5
					c-1,0.2-2.4,0.7-3.8,1.2c-0.8,0.3-1.6,0.8-2.3,1.4c-0.5,0.4-1.2,0.3-1.5-0.1c-0.4-0.5-0.3-1.2,0.1-1.5c0.9-0.8,1.8-1.4,2.9-1.8
					c2.5-1,4.8-1.5,5.5-1.6c0.4-0.1,0.8,0,1.1,0.3c0.3,0.3,0.4,0.7,0.4,1.1l-1.2,9.8c-0.2,1-0.4,2-0.8,2.8c-1.2,3.1-3.1,4-4.4,4.2
					C25.9,28,25.8,28,25.8,28z M30.1,10.7C30.1,10.7,30.1,10.7,30.1,10.7z" />
        </g>
      </g>
    </g>
    <g>
      <path d="M54,61.2c-0.6,0-1.1-0.5-1.1-1.1v-1.9c0-1.2-1-2.3-2.3-2.3h-8.9l-10.8-2.4c-1.6-0.3-3.2-0.1-4.7,0.5l-3.7,1.7
			c-0.6,0.2-1.2,0-1.4-0.6c-0.2-0.6,0-1.2,0.6-1.4l3.7-1.7c1.9-0.8,4-1.1,6-0.7h0l10.6,2.4h8.7c2.5,0,4.5,2,4.5,4.5v1.9
			C55.1,60.7,54.6,61.2,54,61.2z" />
    </g>
    <g>
      <path d="M29.6,73.7c-1.2,0-2.3-0.3-3.4-0.8l-4.7-2.3c-0.5-0.3-0.8-0.9-0.5-1.5c0.3-0.5,0.9-0.8,1.5-0.5l4.6,2.3
			c0.9,0.5,1.9,0.7,3,0.5l26.1-3.5c0.6-0.1,1.2-0.3,1.6-0.8l13.3-12.1l-0.6-0.6c-1.1-1-2.8-1.1-3.9-0.1l-8.5,7.4H41.2
			c-0.6,0-1.1-0.5-1.1-1.1c0-0.6,0.5-1.1,1.1-1.1h16l7.9-6.9c2-1.7,4.9-1.7,6.8,0.1l1.3,1.2c0.3,0.3,0.4,0.7,0.4,1
			c0,0.4-0.2,0.8-0.5,1L59.4,68.8c-0.8,0.7-1.8,1.2-2.8,1.3l-26.1,3.5C30.1,73.6,29.9,73.7,29.6,73.7z M71.7,54.5
			C71.7,54.5,71.7,54.5,71.7,54.5z" />
    </g>
    <g>
      <path d="M17.2,74H7.4c-0.6,0-1.1-0.5-1.1-1.1s0.5-1.1,1.1-1.1h9.7c0.2,0,0.4-0.2,0.4-0.4V52.6c0-0.2-0.2-0.4-0.4-0.4H7.4
			c-0.6,0-1.1-0.5-1.1-1.1c0-0.6,0.5-1.1,1.1-1.1h9.7c1.4,0,2.6,1.2,2.6,2.6v18.8C19.8,72.8,18.6,74,17.2,74z" />
    </g>
    <g>
      <path class="st0" d="M40.5,48.4C33.5,48.4,27,45,23,39.2c-0.3-0.5-0.2-1.2,0.3-1.5s1.2-0.2,1.5,0.3c3.6,5.1,9.4,8.2,15.6,8.2
			c10.5,0,19-8.5,19-19s-8.5-19-19-19c-1.6,0-3.2,0.2-4.7,0.6c-0.6,0.2-1.2-0.2-1.3-0.8c-0.2-0.6,0.2-1.2,0.8-1.3
			C36.9,6.2,38.7,6,40.4,6c11.7,0,21.2,9.5,21.2,21.2S52.2,48.4,40.5,48.4z" />
    </g>
    <g>
      <path class="st0" d="M50.5,29.3c-0.2,0-0.5-0.1-0.7-0.2L45,25.8c-0.3-0.2-0.6-0.6-0.6-1v-8.4l5.2-7.2c0.3-0.5,1-0.6,1.5-0.2
			c0.5,0.3,0.6,1,0.2,1.5l-4.8,6.7v7.2l3.8,2.6l2.2-2.1l3.9,0.5l4.2,0.8c0.6,0.1,1,0.7,0.9,1.3c-0.1,0.6-0.7,1-1.3,0.9l-4.2-0.8
			l-2.8-0.4l-2,1.9C51.1,29.2,50.8,29.3,50.5,29.3z M46.2,24L46.2,24C46.2,24,46.2,24,46.2,24z" />
    </g>
    <g>
      <path class="st0" d="M42.5,44.3c-0.2,0-0.5-0.1-0.7-0.2c-0.5-0.2-0.7-0.8-0.7-1.3v-0.5l-2.2-2.5L37.4,36c-0.4-1-0.2-2.1,0.5-2.9
			l3.3-3.8c0.4-0.4,1-0.6,1.6-0.4h0l5.9,2.4c0.4,0.2,0.7,0.5,0.8,0.9c0.1,0.4,0,0.9-0.2,1.2l-2.5,3.3l1.4,3c0.2,0.6,0,1.2-0.5,1.5
			l-4.4,2.7C43.1,44.2,42.8,44.3,42.5,44.3z M40.7,38.7l2.6,2.8v0.1l2.6-1.6l-1.6-3.4l2.7-3.6l-4.4-1.8l-3,3.4
			c-0.2,0.2-0.2,0.4-0.1,0.7L40.7,38.7z M46.5,39.5C46.5,39.5,46.5,39.5,46.5,39.5z" />
    </g>
  </g>
</svg>