<?xml version="1.0" encoding="utf-8"?>
<!-- Generator: Adobe Illustrator 27.1.1, SVG Export Plug-In . SVG Version: 6.00 Build 0)  -->
<svg version="1.1" id="Layer_1" xmlns="http://www.w3.org/2000/svg" xmlns:xlink="http://www.w3.org/1999/xlink" x="0px"
  y="0px" width="80" height="80" viewBox="0 0 80 80" style="enable-background:new 0 0 80 80;" xml:space="preserve">
  <style type="text/css">
    .st0 {
      fill: none;
      stroke: #000000;
      stroke-width: 2.3438;
      stroke-linecap: round;
      stroke-linejoin: round;
      stroke-miterlimit: 1.5625;
    }

    .st1 {
      fill: none;
      stroke: #0B50DA;
      stroke-width: 2.3438;
      stroke-linecap: round;
      stroke-linejoin: round;
      stroke-miterlimit: 1.5625;
    }
  </style>
  <g>
    <path class="st0" d="M10.8,55.3H1.2 M51,55.3H23.3 M41,16.9h8.5c0.8,0,1.5,0.7,1.5,1.5v36.8 M16.6,16.9h-4.4 M6.8,16.9H1.2
		 M77,59.2v-8.9c0-2.3-1.6-4.3-3.8-4.9l-1-0.3V34.3c0-3.2-2.6-5.7-5.7-5.7h-15 M72.2,45.1l-3.6-0.7" />
    <path class="st0" d="M63.2,43.3L61.4,43c-0.4-0.1-0.6-0.4-0.6-0.8v-6.5c0-0.4,0.3-0.8,0.8-0.8h10.2 M55.9,42.9V35 M72.2,59.2V54
		c0-1,0.8-1.9,1.9-1.9h2.7 M51.5,20.5l10.4,2.9c2.2,0.6,3.8,2.6,3.9,4.8 M66.9,59.4H78c0.4,0,0.8,0.3,0.8,0.8v3.3
		c0,0.4-0.3,0.8-0.8,0.8H63.7" />
    <path class="st0" d="M67.7,64c-0.1-5.8-4.8-10.5-10.7-10.5c-5.9,0-10.6,4.7-10.7,10.6" />
    <circle class="st0" cx="57.1" cy="64.2" r="6.5" />
    <path class="st0" d="M57.1,66.7c-1.4,0-2.5-1.1-2.5-2.5c0-1.4,1.1-2.5,2.5-2.5c1.4,0,2.5,1.1,2.5,2.5
		C59.6,65.5,58.5,66.7,57.1,66.7z M10.4,64.2H1.2 M50.3,64.2H23.9 M36.7,55.5V64 M27.8,64.1c0-5.9-4.8-10.7-10.7-10.7
		S6.5,58.2,6.5,64.1" />
    <path class="st0" d="M11.1,66.6L11.1,66.6c-0.3-0.8-0.5-1.6-0.5-2.4c0-3.6,2.9-6.5,6.5-6.5c3.6,0,6.5,2.9,6.5,6.5s-2.9,6.5-6.5,6.5
		c-0.7,0-1.4-0.1-2.1-0.3" />
    <path class="st0" d="M17.1,66.7c-1.4,0-2.5-1.1-2.5-2.5c0-1.4,1.1-2.5,2.5-2.5s2.5,1.1,2.5,2.5C19.6,65.5,18.5,66.7,17.1,66.7z
		 M45.5,50.7h-5.3c-0.4,0-0.8-0.3-0.8-0.8V47c0-0.4,0.3-0.8,0.8-0.8h5.3c0.4,0,0.8,0.3,0.8,0.8v2.9C46.2,50.4,45.9,50.7,45.5,50.7z
		 M1.2,46.2h4.4c0.4,0,0.8,0.3,0.8,0.8l0,0v2.9c0,0.4-0.3,0.8-0.8,0.8h0H1.2 M39.7,29.9c1.5-2.2,2.3-4.8,2.3-7.4
		c0-7.2-5.9-13.1-13.1-13.1s-13.1,5.9-13.1,13.1c0,7.2,5.9,13.1,13.1,13.1c2.5,0,4.9-0.7,6.8-1.9" />
    <circle class="st1" cx="28.9" cy="22.5" r="8.5" />
    <path class="st1" d="M60.8,47.5h1.8 M28.9,18v4.4l1.9,1.8 M4.3,11.5h10.1 M1.2,27.6h10.6 M4.4,22.2h6.7 M4.7,33h9.7" />
  </g>
</svg>
