<?xml version="1.0" encoding="utf-8"?>
<!-- Generator: Adobe Illustrator 27.1.1, SVG Export Plug-In . SVG Version: 6.00 Build 0)  -->
<svg version="1.1" id="Layer_1" xmlns="http://www.w3.org/2000/svg" xmlns:xlink="http://www.w3.org/1999/xlink" x="0px"
  y="0px" width="80" height="80" viewBox="0 0 80 80" style="enable-background:new 0 0 80 80;" xml:space="preserve">
  <style type="text/css">
    .st0 {
      fill: #0B50DA;
    }
  </style>
  <g>
    <path d="M17.6,73.2l5.2,5.2c0.5,0.5,1.3,0.5,1.8,0l3.1-3.1c0.5-0.5,0.5-1.3,0-1.8l-5.2-5.2c-0.5-0.5-1.3-0.5-1.8,0L20,69L18.1,67
		c3.1-4.1,2.3-10-1.8-13.1c-4.1-3.1-10-2.3-13.1,1.8s-2.3,10,1.8,13.1c3.4,2.6,8,2.6,11.4,0l1.9,1.9l-0.7,0.7
		C17.1,71.9,17.1,72.7,17.6,73.2z M21.6,70.9l3.4,3.5l-1.4,1.4l-3.4-3.4L21.6,70.9z M15.5,66.2c-2.7,2.7-7,2.7-9.7,0
		c-2.7-2.7-2.7-7,0-9.7c2.7-2.7,7-2.7,9.7,0C18.1,59.1,18.2,63.4,15.5,66.2C15.5,66.1,15.5,66.2,15.5,66.2L15.5,66.2z M73.8,61.2
		h-1.5c2.4-1.9,2.8-5.5,0.9-7.9c-1.9-2.4-5.5-2.8-7.9-0.9c-2.4,1.9-2.8,5.5-0.9,7.9c0.3,0.3,0.6,0.6,0.9,0.9h-1.5c-2.8,0-5,2.2-5,5
		v11.2c0,0.7,0.6,1.2,1.2,1.2h17.5c0.7,0,1.2-0.6,1.2-1.2V66.2C78.8,63.5,76.5,61.2,73.8,61.2z M68.8,53.8c1.7,0,3.1,1.4,3.1,3.1
		S70.5,60,68.8,60s-3.1-1.4-3.1-3.1S67,53.8,68.8,53.8z M76.2,76.2h-15v-10c0-1.4,1.1-2.5,2.5-2.5h10c1.4,0,2.5,1.1,2.5,2.5V76.2z
		 M16.6,17.4C8.5,25.8,5.5,37.9,8.8,49.1l2.4-0.7c-3-10.3-0.2-21.5,7.3-29.2L16.6,17.4z M55.6,68.5l-1.2-2.2C50,68.8,45,70,40,70
		c-2.8,0-5.6-0.4-8.4-1.2l-0.7,2.4c2.9,0.9,6,1.3,9.1,1.3C45.4,72.5,50.8,71.2,55.6,68.5z M71.5,47.8c0.6-2.5,1-5.1,0.9-7.8
		c0-8.4-3.2-16.5-9.1-22.5l-1.8,1.7C67,24.8,70,32.3,70,40c0,2.4-0.3,4.8-0.9,7.2L71.5,47.8z M32.9,53.6l0.6-0.3
		c0.7,0.5,1.5,1,2.3,1.3v0.6c0,1.3,1.1,2.3,2.4,2.3h3.6c1.3,0,2.4-1,2.4-2.3v-0.6c0.8-0.3,1.6-0.8,2.3-1.3l0.7,0.4
		c1.1,0.6,2.5,0.2,3.2-0.8l1.8-3c0.3-0.5,0.4-1.2,0.2-1.8c-0.2-0.6-0.6-1.1-1.1-1.4l-0.6-0.3c0.1-0.8,0.1-1.7,0-2.5l0.6-0.3
		c0.6-0.3,1-0.8,1.1-1.4c0.2-0.6,0.1-1.2-0.2-1.8l-1.8-3c-0.7-1.1-2.1-1.5-3.2-0.8l-0.6,0.3c-0.7-0.5-1.5-1-2.3-1.3v-0.6
		c0-1.3-1.1-2.3-2.4-2.3h-3.6c-1.3,0-2.4,1-2.4,2.3v0.6c-0.8,0.3-1.6,0.8-2.3,1.3l-0.7-0.4c-1.1-0.6-2.5-0.2-3.2,0.8l-1.8,3
		c-0.3,0.5-0.4,1.2-0.3,1.8c0.2,0.6,0.6,1.1,1.1,1.4l0.6,0.3c-0.1,0.8-0.1,1.7,0,2.5l-0.6,0.3c-0.6,0.3-1,0.8-1.1,1.4
		c-0.2,0.6-0.1,1.2,0.3,1.8l1.8,3C30.3,53.9,31.7,54.2,32.9,53.6z M31.7,45c0-0.4,0-0.7,0.1-1.1c0.1-0.9-0.4-1.9-1.2-2.3l-0.5-0.3
		l1.6-2.7l0.6,0.3c0.8,0.5,1.9,0.4,2.6-0.2c0.6-0.4,1.2-0.8,1.8-1c0.9-0.3,1.5-1.2,1.5-2.2V35h3.4v0.6c0,1,0.6,1.8,1.5,2.2
		c0.7,0.3,1.3,0.6,1.8,1c0.8,0.6,1.8,0.6,2.6,0.2l0.6-0.3l1.6,2.7l-0.5,0.3c-0.8,0.5-1.3,1.4-1.2,2.3c0.1,0.3,0.1,0.7,0.1,1.1
		c0,0.4,0,0.7-0.1,1.1c-0.1,0.9,0.4,1.9,1.2,2.3l0.5,0.3l-1.7,2.7l-0.6-0.3c-0.8-0.4-1.9-0.4-2.6,0.2c-0.6,0.4-1.2,0.8-1.8,1
		c-0.9,0.3-1.5,1.2-1.5,2.2V55h-3.4v-0.6c0-1-0.6-1.8-1.5-2.2c-0.7-0.3-1.3-0.6-1.8-1c-0.8-0.6-1.8-0.6-2.6-0.2l-0.6,0.3l-1.6-2.7
		l0.5-0.3c0.8-0.5,1.3-1.4,1.2-2.3C31.7,45.7,31.7,45.4,31.7,45z" />
    <path d="M40,50c2.8,0,5-2.2,5-5s-2.2-5-5-5s-5,2.2-5,5S37.2,50,40,50z M40,42.5c1.4,0,2.5,1.1,2.5,2.5s-1.1,2.5-2.5,2.5
		c-1.4,0-2.5-1.1-2.5-2.5S38.6,42.5,40,42.5z M18.8,6.2H25v2.5h-6.2V6.2z M21.2,11.2h6.2v2.5h-6.2V11.2z" />
    <path class="st0" d="M52.2,5.5C52,5.2,51.6,5,51.2,5H45V2.5c0-0.7-0.6-1.2-1.2-1.2h-20c-0.7,0-1.2,0.6-1.2,1.2V5H25V3.8h17.5v18.8
		h-7.7c-0.7-1.9-2.8-3-4.7-2.3c-1.1,0.4-1.9,1.2-2.3,2.3H25V15h-2.5v8.8c0,0.7,0.6,1.2,1.2,1.2h4c0.7,1.9,2.8,3,4.7,2.3
		c1.1-0.4,1.9-1.2,2.3-2.3h11.7c0.7,1.9,2.8,3,4.7,2.3c1.1-0.4,1.9-1.2,2.3-2.3h2.7c0.7,0,1.2-0.6,1.2-1.2V12.5
		c0-0.3-0.1-0.6-0.3-0.8L52.2,5.5z M31.2,25c-0.7,0-1.2-0.6-1.2-1.2s0.6-1.2,1.2-1.2s1.2,0.6,1.2,1.2S31.9,25,31.2,25z M48.8,7.5
		h1.9l3,3.8h-4.9V7.5z M50,25c-0.7,0-1.2-0.6-1.2-1.2s0.6-1.2,1.2-1.2s1.2,0.6,1.2,1.2S50.7,25,50,25z M55,22.5h-1.5
		c-0.7-1.9-2.8-3-4.7-2.3c-1.1,0.4-1.9,1.2-2.3,2.3H45v-15h1.2v5c0,0.7,0.6,1.2,1.2,1.2H55V22.5z" />
  </g>
</svg>
