<?xml version="1.0" encoding="utf-8"?>
<!-- Generator: Adobe Illustrator 27.1.1, SVG Export Plug-In . SVG Version: 6.00 Build 0)  -->
<svg version="1.1" id="Capa_1" xmlns="http://www.w3.org/2000/svg" xmlns:xlink="http://www.w3.org/1999/xlink" x="0px"
  y="0px" width="80" height="80" viewBox="0 0 80 80" style="enable-background:new 0 0 80 80;" xml:space="preserve">
  <style type="text/css">
    .st0 {
      fill: none;
      stroke: #000000;
      stroke-width: 2.3438;
      stroke-miterlimit: 3.5821;
    }

    .st1 {
      fill: none;
      stroke: #0B50DA;
      stroke-width: 2.3438;
      stroke-miterlimit: 3.5821;
    }
  </style>
  <g>
    <circle class="st0" cx="13.4" cy="39.6" r="4.7" />
    <path class="st0" d="M13.4,63.1v13.4c0,1.3-1.1,2.3-2.3,2.3s-2.3-1.1-2.3-2.3V50.2 M13.4,76.5c0,1.3,1.1,2.3,2.3,2.3
		s2.3-1.1,2.3-2.3v-5.9 M18.1,68.3V50.2 M18.1,58.4c0,1.3,1.1,2.3,2.3,2.3c1.3,0,2.3-1.1,2.3-2.3V49c0-2.6-2.1-4.7-4.7-4.7H8.7
		C6.1,44.3,4,46.4,4,49v9.4c0,1.3,1.1,2.3,2.3,2.3s2.3-1.1,2.3-2.3" />
    <path class="st0" d="M66.1,17.6H49.7 M49.7,3.5h16.4v14.1l-7,7" />
    <polyline class="st0" points="66.1,10.5 75.5,10.5 73.2,17.6 75.5,24.6 59.1,24.6 59.1,17.6 	" />
    <path class="st0" d="M49.7,34V3.5c0-1.3-1.1-2.3-2.3-2.3S45,2.2,45,3.5v5.9 M45,11.7V34" />
    <path class="st0" d="M60.3,8.2h2.3 M55.6,8.2h2.3" />
    <path class="st0" d="M47.4,33.1c-1.9,0-3.5,1.6-3.5,3.5c0,1.9,1.6,3.5,3.5,3.5c1.9,0,3.5-1.6,3.5-3.5S49.3,33.1,47.4,33.1
		L47.4,33.1z M62.6,74.1c1.3,0,2.3,1,2.3,2.3c0,1.3-1,2.3-2.3,2.3c-1.3,0-2.3-1-2.3-2.3C60.3,75.2,61.3,74.1,62.6,74.1L62.6,74.1z
		 M43.9,57.7c1.3,0,2.3,1,2.3,2.3c0,1.3-1,2.3-2.3,2.3s-2.3-1-2.3-2.3S42.6,57.7,43.9,57.7L43.9,57.7z M62.6,46c1.3,0,2.3,1,2.3,2.3
		c0,1.3-1,2.3-2.3,2.3c-1.3,0-2.3-1-2.3-2.3C60.3,47.1,61.3,46,62.6,46z" />
    <path class="st1" d="M73.2,60.1c1.3,0,2.3,1.1,2.3,2.3 M68.5,48.4h2.3 M59.1,36.6h2.3 M59.1,60.1h2.3 M54.4,36.6h2.3 M73.2,36.6
		c1.3,0,2.3,1.1,2.3,2.3 M73.2,48.4c1.3,0,2.3-1.1,2.3-2.3 M75.5,41.3v2.3 M68.5,36.6h2.3 M63.8,36.6h2.3 M45,48.4h2.3 M54.4,48.4
		h2.3 M49.7,48.4h2.3 M33.3,48.4c-1.3,0-2.3,1.1-2.3,2.3 M33.3,60.1C32,60.1,31,59,31,57.7 M31,53v2.3 M38,48.4h-2.3 M42.7,48.4
		h-2.3 M54.4,60.1h2.3 M35.7,60.1H38 M49.7,60.1h2.3 M54.4,76.5h2.3 M26.3,76.5h2.3 M21.6,76.5H24 M35.7,76.5H38 M31,76.5h2.3
		 M45,76.5h2.3 M40.4,76.5h2.3 M49.7,76.5h2.3 M73.2,76.5c1.3,0,2.3-1.1,2.3-2.3 M75.5,69.5v2.3 M75.5,64.8v2.3 M68.5,76.5h2.3
		 M68.5,60.1h2.3 M63.8,60.1h2.3" />
  </g>
</svg>
