<?xml version="1.0" encoding="utf-8"?>
<!-- Generator: Adobe Illustrator 27.1.1, SVG Export Plug-In . SVG Version: 6.00 Build 0)  -->
<svg version="1.1" id="Layer_1" xmlns="http://www.w3.org/2000/svg" width="80" height="80"
  xmlns:xlink="http://www.w3.org/1999/xlink" x="0px" y="0px" viewBox="0 0 512 512"
  style="enable-background:new 0 0 512 512;" xml:space="preserve">
  <style type="text/css">
    .st0 {
      clip-path: url(#SVGID_00000002348829186784394610000006010915053460130209_);
    }

    .st1 {
      fill: none;
      stroke: #000000;
      stroke-width: 15;
      stroke-linecap: round;
      stroke-linejoin: round;
      stroke-miterlimit: 10;
    }

    .st2 {
      fill: none;
      stroke: #0B50DA;
      stroke-width: 11;
      stroke-linecap: round;
      stroke-linejoin: round;
      stroke-miterlimit: 10;
    }
  </style>
  <g>
    <g>
      <defs>
        <rect id="SVGID_1_" y="0" width="512" height="512" />
      </defs>
      <clipPath id="SVGID_00000151541933862441309430000012414167196588793730_">
        <use xlink:href="#SVGID_1_" style="overflow:visible;" />
      </clipPath>

      <g transform="matrix(1.33333 0 0 -1.33333 0 682.667)"
        style="clip-path:url(#SVGID_00000151541933862441309430000012414167196588793730_);">
        <path class="st1" d="M233.3,275c-17.6,0-30.3,15.8-27.1,33.1l4,21.2c2.4,13.1-4.1,26.3-16,32.1c-4.9,2.4-10.8-0.1-12.6-5.3
				l-18.9-56.3c-5.4-16.2-16.9-33-32-40.8" />
        <path class="st1" d="M130.7,167c0-12.4,11.7-22.5,40.6-22.5h89.6c8.2,0,14.9,6.7,14.9,14.9c0,8.2-6.7,14.9-14.9,14.9h-13h23
				c9.3,0,16.8,7.5,16.8,16.8c0,9.3-7.5,16.8-16.8,16.8h-23h27.4c9.3,0,16.8,7.5,16.8,16.8v0c0,9.3-7.5,16.8-16.8,16.8h-27.4h23
				c9.3,0,16.8,7.5,16.8,16.8c0,9.3-7.5,16.8-16.8,16.8h-11.3" />
        <path class="st1" d="M130.5,184.1v-27.9c0-6.5-5.2-11.7-11.7-11.7h-15c-6.5,0-11.7,5.2-11.7,11.7v107c0,6.5,5.2,11.7,11.7,11.7
				h15c6.5,0,11.7-5.2,11.7-11.7v-52.8" />
        <path class="st2" d="M124.1,463.7l5.9-12c0.2-0.5,0.7-0.8,1.2-0.8l14.1-2.1c1.3-0.2,1.8-1.8,0.9-2.6l-10.2-10
				c-0.4-0.4-0.5-0.9-0.4-1.4l2.4-14.1c0.2-1.3-1.1-2.2-2.3-1.6l-12.7,6.7c-0.5,0.2-1,0.2-1.4,0l-12.7-6.7c-1.1-0.6-2.5,0.4-2.3,1.6
				l2.4,14.1c0.1,0.5-0.1,1-0.4,1.4l-10.2,10c-0.9,0.9-0.4,2.5,0.9,2.6l14.1,2.1c0.5,0.1,0.9,0.4,1.2,0.8l5.9,12
				C121.3,465.2,123.4,465.2,124.1,463.7z" />
        <path class="st2" d="M54.4,463.7l5.9-12c0.2-0.5,0.7-0.8,1.2-0.8l14.1-2.1c1.3-0.2,1.8-1.8,0.9-2.6l-10.2-10
				c-0.4-0.4-0.5-0.9-0.4-1.4l2.4-14.1c0.2-1.3-1.1-2.2-2.3-1.6l-12.7,6.7c-0.5,0.2-1,0.2-1.4,0l-12.7-6.7c-1.1-0.6-2.5,0.4-2.3,1.6
				l2.4,14.1c0.1,0.5-0.1,1-0.4,1.4l-10.2,10c-0.9,0.9-0.4,2.5,0.9,2.6l14.1,2.1c0.5,0.1,0.9,0.4,1.2,0.8l5.9,12
				C51.6,465.2,53.7,465.2,54.4,463.7z" />
        <path class="st2" d="M193.8,463.7l5.9-12c0.2-0.5,0.7-0.8,1.2-0.8l14.1-2.1c1.3-0.2,1.8-1.8,0.9-2.6l-10.2-10
				c-0.4-0.4-0.5-0.9-0.4-1.4l2.4-14.1c0.2-1.3-1.1-2.2-2.3-1.6l-12.7,6.7c-0.5,0.2-1,0.2-1.4,0l-12.7-6.7c-1.1-0.6-2.5,0.4-2.3,1.6
				l2.4,14.1c0.1,0.5-0.1,1-0.4,1.4l-10.2,10c-0.9,0.9-0.4,2.5,0.9,2.6l14.1,2.1c0.5,0.1,0.9,0.4,1.2,0.8l5.9,12
				C191,465.2,193.1,465.2,193.8,463.7z" />
        <path class="st2" d="M263.5,463.7l5.9-12c0.2-0.5,0.7-0.8,1.2-0.8l14.1-2.1c1.3-0.2,1.8-1.8,0.9-2.6l-10.2-10
				c-0.4-0.4-0.5-0.9-0.4-1.4l2.4-14.1c0.2-1.3-1.1-2.2-2.3-1.6l-12.7,6.7c-0.5,0.2-1,0.2-1.4,0l-12.7-6.7c-1.1-0.6-2.5,0.4-2.3,1.6
				l2.4,14.1c0.1,0.5-0.1,1-0.4,1.4l-10.2,10c-0.9,0.9-0.4,2.5,0.9,2.6l14.1,2.1c0.5,0.1,0.9,0.4,1.2,0.8l5.9,12
				C260.6,465.2,262.7,465.2,263.5,463.7z" />
        <path class="st2" d="M333.2,463.7l5.9-12c0.2-0.5,0.7-0.8,1.2-0.8l14.1-2.1c1.3-0.2,1.8-1.8,0.9-2.6l-10.2-10
				c-0.4-0.4-0.5-0.9-0.4-1.4l2.4-14.1c0.2-1.3-1.1-2.2-2.3-1.6l-12.7,6.7c-0.5,0.2-1,0.2-1.4,0l-12.7-6.7c-1.1-0.6-2.5,0.4-2.3,1.6
				l2.4,14.1c0.1,0.5-0.1,1-0.4,1.4l-10.2,10c-0.9,0.9-0.4,2.5,0.9,2.6l14.1,2.1c0.5,0.1,0.9,0.4,1.2,0.8l5.9,12
				C330.3,465.2,332.4,465.2,333.2,463.7z" />
        <path class="st1" d="M84,385.3H24.4c-10.4,0-18.8,8.4-18.8,18.8v72.8c0,10.4,8.4,18.8,18.8,18.8h236" />
        <path class="st1" d="M286.6,495.5h73c10.4,0,18.8-8.4,18.8-18.8V404c0-10.4-8.4-18.8-18.8-18.8H110.2" />
      </g>
    </g>
  </g>
</svg>