<?xml version="1.0" encoding="utf-8"?>
<!-- Generator: Adobe Illustrator 27.1.1, SVG Export Plug-In . SVG Version: 6.00 Build 0)  -->
<svg version="1.1" id="Layer_1" xmlns="http://www.w3.org/2000/svg" xmlns:xlink="http://www.w3.org/1999/xlink" x="0px"
  y="0px" viewBox="0 0 64 64" style="enable-background:new 0 0 64 64;" width="80" height="80" xml:space="preserve">
  <style type="text/css">
    .st0 {
      fill: #0B50DA;
    }
  </style>
  <g>
    <g>
      <path class="st0" d="M32,52.4c-0.2,0-0.5-0.1-0.7-0.3L29.1,50l-3,0.8c-0.5,0.1-1.1-0.2-1.2-0.7L24,47l-3-0.8
			c-0.5-0.2-0.8-0.7-0.7-1.2l0.8-3l-2.2-2.2c-0.4-0.4-0.4-1,0-1.4l2.2-2.2l-0.8-3c-0.1-0.5,0.2-1.1,0.7-1.2l3-0.8l0.8-3
			c0.1-0.5,0.7-0.8,1.2-0.7l3,0.8l2.2-2.2c0.4-0.4,1-0.4,1.4,0l2.2,2.2l3-0.8c0.5-0.1,1.1,0.2,1.2,0.7l0.8,3l3,0.8
			c0.5,0.2,0.8,0.7,0.7,1.2l-0.8,3l2.2,2.2c0.4,0.4,0.4,1,0,1.4L42.9,42l0.8,3c0.1,0.5-0.2,1.1-0.7,1.2L40,47l-0.8,3
			c-0.2,0.5-0.7,0.8-1.2,0.7l-3-0.8l-2.2,2.2C32.5,52.3,32.2,52.4,32,52.4z M29.4,47.8c0.3,0,0.5,0.1,0.7,0.3L32,50l1.9-1.9
			c0.2-0.2,0.6-0.3,0.9-0.2l2.6,0.7l0.7-2.6c0.1-0.3,0.4-0.6,0.7-0.7l2.6-0.7l-0.7-2.6c-0.1-0.3,0-0.7,0.2-0.9L43,39l-1.9-1.9
			c-0.2-0.2-0.3-0.6-0.2-0.9l0.7-2.6l-2.6-0.7c-0.3-0.1-0.6-0.4-0.7-0.7l-0.7-2.6l-2.6,0.7c-0.3,0.1-0.7,0-0.9-0.2L32,28.1L30.1,30
			c-0.2,0.2-0.6,0.3-0.9,0.2l-2.6-0.7l-0.7,2.6c-0.1,0.3-0.4,0.6-0.7,0.7l-2.6,0.7l0.7,2.6c0.1,0.3,0,0.7-0.2,0.9L21,39l1.9,1.9
			c0.2,0.2,0.3,0.6,0.2,0.9l-0.7,2.6l2.6,0.7c0.3,0.1,0.6,0.4,0.7,0.7l0.7,2.6l2.6-0.7C29.2,47.8,29.3,47.8,29.4,47.8z" />
    </g>
    <g>
      <path class="st0"
        d="M26,58.9C25.9,58.9,25.9,58.9,26,58.9c-0.5,0-0.8-0.3-1-0.7l-1.3-4.4L20,55.2c-0.4,0.1-0.8,0-1.1-0.2
			c-0.3-0.3-0.4-0.7-0.2-1.1l3.5-8.5c0.2-0.5,0.8-0.8,1.3-0.5c0.5,0.2,0.8,0.8,0.5,1.3l-2.6,6.3l2.5-1c0.3-0.1,0.5-0.1,0.8,0
			c0.2,0.1,0.4,0.3,0.5,0.6l0.9,3l3-6.1c0.2-0.5,0.8-0.7,1.3-0.5c0.5,0.2,0.7,0.8,0.5,1.3l-4.1,8.4C26.7,58.7,26.3,58.9,26,58.9z" />
    </g>
    <g>
      <path class="st0" d="M38,58.9c-0.4,0-0.7-0.2-0.9-0.6l-4.1-8.4c-0.2-0.5,0-1.1,0.5-1.3c0.5-0.2,1.1,0,1.3,0.5l3,6.1l0.9-3
			c0.1-0.3,0.3-0.5,0.5-0.6s0.5-0.1,0.8,0l2.5,1l-2.6-6.3c-0.2-0.5,0-1.1,0.5-1.3s1.1,0,1.3,0.5l3.5,8.5c0.2,0.4,0.1,0.8-0.2,1.1
			s-0.7,0.4-1.1,0.2l-3.7-1.4L39,58.2C38.9,58.6,38.5,58.9,38,58.9C38.1,58.9,38.1,58.9,38,58.9z" />
    </g>
    <g>
      <path d="M32,45.6c-3.6,0-6.6-3-6.6-6.6s3-6.6,6.6-6.6s6.6,3,6.6,6.6S35.6,45.6,32,45.6z M32,34.4c-2.5,0-4.6,2.1-4.6,4.6
			s2.1,4.6,4.6,4.6s4.6-2.1,4.6-4.6S34.5,34.4,32,34.4z" />
    </g>
  </g>
  <g>
    <path d="M56.8,48.3H45.9c-0.5,0-1-0.5-1-1s0.5-1,1-1h10.8c1.1,0,2-0.9,2-2V9.1c0-1.1-0.9-2-2-2H7.2c-1.1,0-2,0.9-2,2v35.2
		c0,1.1,0.9,2,2,2h9.8c0.5,0,1,0.5,1,1s-0.5,1-1,1H7.2c-2.2,0-4-1.8-4-4V9.1c0-2.2,1.8-4,4-4h49.6c2.2,0,4,1.8,4,4v35.2
		C60.8,46.5,59,48.3,56.8,48.3z" />
  </g>
  <g>
    <path d="M53.6,44.5h-7.3c-0.5,0-1-0.5-1-1s0.5-1,1-1h7.3c0.9,0,1.5-0.7,1.5-1.4V12.3c0-0.8-0.7-1.4-1.5-1.4H11.3
		c-0.9,0-1.6,0.6-1.6,1.4v28.8c0,0.8,0.7,1.4,1.6,1.4h5.8c0.5,0,1,0.5,1,1s-0.5,1-1,1h-5.8c-2,0-3.6-1.5-3.6-3.4V12.3
		c0-1.9,1.6-3.4,3.6-3.4h42.3c2,0,3.5,1.5,3.5,3.4v28.8C57.1,43,55.6,44.5,53.6,44.5z" />
  </g>
  <g>
    <path d="M34.6,16.6H15c-0.6,0-1-0.5-1-1s0.4-1,1-1h19.6c0.5,0,1,0.4,1,1C35.6,16.2,35.2,16.6,34.6,16.6z" />
  </g>
  <g>
    <path d="M49.9,16.6H39.3c-0.5,0-1-0.5-1-1s0.5-1,1-1h10.6c0.5,0,1,0.4,1,1C50.9,16.2,50.5,16.6,49.9,16.6z" />
  </g>
  <g>
    <path d="M49.9,22.7H30.3c-0.5,0-1-0.5-1-1s0.5-1,1-1h19.6c0.5,0,1,0.5,1,1S50.5,22.7,49.9,22.7z" />
  </g>
  <g>
    <path d="M25.6,22.7H15c-0.6,0-1-0.5-1-1s0.4-1,1-1h10.6c0.5,0,1,0.5,1,1S26.1,22.7,25.6,22.7z" />
  </g>
</svg>